<svg width="36" height="36" viewBox="0 0 36 36" fill="none" xmlns="http://www.w3.org/2000/svg">
<path opacity="0.05" d="M22.5075 31.4972L22.5 27.1487C22.5 26.4444 22.335 25.7567 22.0185 25.1334C26.2493 24.2837 28.308 21.7824 28.308 17.5007C28.308 15.8094 27.8093 14.3162 26.826 13.0607C26.901 12.8229 26.9565 12.5769 26.991 12.3249C27.132 11.2982 26.9738 10.6269 26.8463 10.0869L26.826 9.99992C26.6865 9.40292 26.5193 8.97692 26.5125 8.95892L26.4293 8.74742L26.346 8.53592L26.1195 8.51192L25.8923 8.48792C25.8923 8.48792 25.743 8.47217 25.5165 8.47217C25.2023 8.47217 24.7365 8.50367 24.2963 8.65292L24.1493 8.70242C23.5943 8.88917 23.07 9.06617 22.3365 9.50417C22.122 9.63242 21.8873 9.77867 21.636 9.94217C20.5005 9.66092 19.2788 9.51767 18 9.51767C16.7085 9.51767 15.4763 9.66167 14.3333 9.94592C14.079 9.78092 13.8428 9.63317 13.6268 9.50417C12.8933 9.06617 12.369 8.88992 11.814 8.70242L11.667 8.65292C11.2283 8.50367 10.7618 8.47217 10.4475 8.47217C10.221 8.47217 10.0718 8.48792 10.0718 8.48792L9.84526 8.51192L9.62026 8.53517L9.53627 8.74592L9.45152 8.95817C9.44402 8.97767 9.27676 9.40367 9.13726 10.0014L9.11702 10.0877C8.98952 10.6269 8.83127 11.2989 8.97227 12.3249C9.00827 12.5844 9.06602 12.8387 9.14477 13.0832C8.18102 14.3327 7.69277 15.8177 7.69277 17.5007C7.69277 21.7719 9.75376 24.2717 13.9905 25.1282C13.845 25.4192 13.7318 25.7267 13.6515 26.0462C13.5038 26.0964 13.368 26.1302 13.248 26.1489C13.0695 26.1759 12.8828 26.1894 12.6938 26.1894C12.1793 26.1894 11.775 26.0889 11.6175 25.9952C11.3828 25.8557 10.9635 25.4499 10.557 24.8567C10.2098 24.3504 9.66826 23.6882 9.06301 23.4114C8.53951 23.1722 7.98527 23.0349 7.54127 23.0349C7.43777 23.0349 7.34252 23.0424 7.25927 23.0559C6.87152 23.1174 6.54752 23.3304 6.37127 23.6409C6.21902 23.9087 6.19501 24.2207 6.30526 24.4967C6.46951 24.9077 6.94352 25.2354 7.31252 25.4379C7.49402 25.5377 7.88627 25.9022 8.11501 26.2697C8.28676 26.5457 8.36627 26.7422 8.47652 27.0137C8.54177 27.1749 8.61377 27.3504 8.71127 27.5627C9.06376 28.3292 10.164 29.0057 10.2885 29.0799C10.893 29.4422 11.9093 29.5584 12.6563 29.5922L12.7485 29.5944H12.7493C12.9293 29.5944 13.1768 29.5772 13.5023 29.5412V31.5009C13.5038 31.8977 13.0995 31.9877 12.5648 31.9794L12.975 32.1174C14.5463 32.6792 16.2338 33.0002 18 33.0002C19.7663 33.0002 21.4538 32.6792 23.0273 32.1182L23.5545 31.9217C23.0213 31.9037 22.512 31.8167 22.5075 31.4972Z" fill="white"/>
<path opacity="0.07" d="M23.0857 32.0979C22.7812 32.1332 22.125 32.0162 22.125 31.5017V27.1487C22.125 26.3282 21.879 25.5354 21.423 24.8597C25.8592 24.1419 27.9322 21.7899 27.9322 17.5007C27.9322 15.8229 27.4177 14.3552 26.403 13.1342C26.5057 12.8604 26.5777 12.5717 26.619 12.2739C26.7502 11.3169 26.607 10.7094 26.481 10.1732L26.4607 10.0862C26.3272 9.51542 26.1697 9.11342 26.163 9.09692L26.0797 8.88542L25.8525 8.86142C25.8525 8.86142 25.719 8.84717 25.5157 8.84717C25.23 8.84717 24.8077 8.87492 24.4162 9.00842L24.2692 9.05792C23.7337 9.23867 23.2275 9.40892 22.5285 9.82592C22.2795 9.97442 22.002 10.1492 21.7027 10.3464C20.553 10.0457 19.3087 9.89267 18 9.89267C16.6785 9.89267 15.4237 10.0464 14.2657 10.3502C13.9635 10.1514 13.6845 9.97592 13.434 9.82592C12.735 9.40892 12.2287 9.23792 11.6932 9.05792L11.5462 9.00842C11.1555 8.87567 10.7325 8.84717 10.4467 8.84717C10.2435 8.84717 10.11 8.86142 10.11 8.86142L9.88349 8.88542L9.79874 9.09767C9.79199 9.11417 9.63449 9.51617 9.50099 10.0869L9.48074 10.1739C9.35399 10.7102 9.21074 11.3169 9.34274 12.2739C9.38474 12.5792 9.45974 12.8747 9.56624 13.1544C8.57099 14.3694 8.06699 15.8297 8.06699 17.5007C8.06699 21.7779 10.1415 24.1292 14.5815 24.8552C14.2852 25.2977 14.0782 25.7964 13.9717 26.3282C13.7242 26.4257 13.5 26.4902 13.3035 26.5202C13.1062 26.5502 12.9007 26.5652 12.693 26.5652C12.1755 26.5652 11.6782 26.4684 11.4255 26.3184C11.0955 26.1227 10.6327 25.6329 10.2465 25.0697C9.98399 24.6872 9.46124 24.0069 8.90549 23.7534C8.42924 23.5359 7.93199 23.4107 7.53974 23.4107C7.45724 23.4107 7.38224 23.4167 7.31624 23.4272C7.04174 23.4707 6.81524 23.6162 6.69524 23.8277C6.59924 23.9957 6.58349 24.1899 6.65099 24.3587C6.78524 24.6947 7.28249 24.9962 7.49024 25.1102C7.74149 25.2482 8.17949 25.6682 8.43074 26.0732C8.61899 26.3762 8.70824 26.5959 8.82149 26.8734C8.88524 27.0302 8.95499 27.2012 9.04949 27.4074C9.29774 27.9467 10.0642 28.5114 10.4782 28.7597C11.0437 29.0987 12.0937 29.1932 12.6697 29.2187L12.753 29.2202C12.9772 29.2202 13.353 29.1864 13.8742 29.1189V31.5017C13.8742 32.0859 13.131 32.1092 12.9487 32.1092C12.9255 32.1092 13.326 32.2472 13.326 32.2472C14.7982 32.7302 16.3665 33.0002 18 33.0002C19.6335 33.0002 21.2017 32.7302 22.6732 32.2479C22.6732 32.2479 23.109 32.0949 23.0857 32.0979Z" fill="white"/>
<path d="M27.558 15.2786C27.558 13.5461 26.9715 12.1091 25.9702 10.9826C26.079 10.7388 26.1922 10.4118 26.2485 10.0008C26.3775 9.06334 26.2252 8.50084 26.0962 7.95034C25.9672 7.39984 25.815 7.01284 25.815 7.01284C25.815 7.01284 25.1235 6.94234 24.5377 7.14184C23.952 7.34134 23.448 7.49359 22.7212 7.92709C22.3815 8.12959 22.0395 8.35159 21.7687 8.53159C20.6115 8.21059 19.3387 8.04559 18 8.04559C16.6492 8.04559 15.3652 8.21134 14.1997 8.53459C13.9282 8.35384 13.584 8.13034 13.242 7.92634C12.5152 7.49284 12.0112 7.34059 11.4255 7.14109C10.8397 6.94159 10.1482 7.01209 10.1482 7.01209C10.1482 7.01209 9.99597 7.39909 9.86697 7.94959C9.73797 8.50009 9.58572 9.06259 9.71472 10.0001C9.77247 10.4216 9.88947 10.7546 10.0012 10.9998C9.01872 12.1196 8.44272 13.5476 8.44272 15.2778C8.44272 19.7651 10.8667 21.8133 15.2835 22.3541C14.7682 22.8986 14.4225 23.5961 14.3062 24.3723C14.016 24.4998 13.6815 24.6198 13.3597 24.6678C12.5317 24.7931 11.6565 24.6678 11.235 24.4181C10.8135 24.1683 10.3132 23.6058 9.93822 23.0583C9.62172 22.5963 9.16497 22.0601 8.75097 21.8711C8.20422 21.6213 7.67247 21.5276 7.37622 21.5741C7.07922 21.6213 6.93897 21.8396 7.00122 21.9963C7.06347 22.1523 7.36047 22.3871 7.67322 22.5588C7.98597 22.7306 8.47047 23.1993 8.75172 23.6523C9.06522 24.1578 9.12672 24.4496 9.39222 25.0271C9.57897 25.4336 10.218 25.9413 10.6732 26.2143C11.064 26.4491 11.8447 26.5826 12.6892 26.6208C12.981 26.6343 13.6702 26.5488 14.2515 26.4663V29.2788C14.2515 29.7581 13.8127 30.1226 13.3582 30.0386C14.817 30.5291 16.3747 30.7781 18 30.7781C19.6245 30.7781 21.1822 30.5291 22.6425 30.0401C22.1887 30.1233 21.75 29.7588 21.75 29.2796V24.9266C21.75 23.9298 21.3547 23.0291 20.7202 22.3578C25.1047 21.8313 27.558 19.8318 27.558 15.2786ZM8.42922 22.3233C8.31372 22.2641 8.25147 22.1546 8.29047 22.0773C8.32947 22.0001 8.45547 21.9858 8.57097 22.0451C8.68647 22.1043 8.74872 22.2138 8.70972 22.2911C8.67072 22.3683 8.54472 22.3826 8.42922 22.3233ZM9.33822 22.8896C9.27747 22.9556 9.14697 22.9346 9.04647 22.8431C8.94597 22.7516 8.91372 22.6233 8.97447 22.5573C9.03522 22.4913 9.16572 22.5123 9.26622 22.6038C9.36672 22.6953 9.39897 22.8236 9.33822 22.8896ZM9.90372 23.8271C9.82722 23.8811 9.69747 23.8308 9.61422 23.7146C9.53097 23.5983 9.52572 23.4596 9.60222 23.4056C9.67872 23.3516 9.80847 23.4018 9.89172 23.5181C9.97422 23.6343 9.98022 23.7731 9.90372 23.8271ZM10.716 24.5328C10.6642 24.6168 10.5172 24.6206 10.3882 24.5418C10.2592 24.4631 10.1962 24.3311 10.248 24.2471C10.2997 24.1631 10.4467 24.1593 10.5757 24.2381C10.7047 24.3168 10.7677 24.4488 10.716 24.5328ZM11.484 25.2236C11.3242 25.2041 11.2057 25.1043 11.2192 25.0008C11.232 24.8973 11.3722 24.8298 11.5312 24.8493C11.691 24.8688 11.8095 24.9686 11.796 25.0721C11.7832 25.1748 11.6437 25.2431 11.484 25.2236ZM12.7222 25.4028C12.552 25.3931 12.4192 25.2956 12.426 25.1861C12.4327 25.0766 12.576 24.9948 12.7462 25.0046C12.9165 25.0143 13.0492 25.1118 13.0425 25.2213C13.0357 25.3316 12.8925 25.4126 12.7222 25.4028ZM13.8907 25.2858C13.7092 25.2858 13.5622 25.1913 13.5622 25.0751C13.5622 24.9588 13.7092 24.8643 13.8907 24.8643C14.0722 24.8643 14.2192 24.9588 14.2192 25.0751C14.2192 25.1913 14.0715 25.2858 13.8907 25.2858Z" fill="white"/>
</svg>
