<svg width="36" height="36" viewBox="0 0 36 36" fill="none" xmlns="http://www.w3.org/2000/svg">
<path d="M10.8 30.0001H4.80005V12.0001H10.8V30.0001ZM7.80125 9.6001C6.14165 9.6001 4.80005 8.2549 4.80005 6.5989C4.80005 4.9429 6.14405 3.6001 7.80125 3.6001C9.45485 3.6001 10.8 4.9453 10.8 6.5989C10.8 8.2549 9.45485 9.6001 7.80125 9.6001ZM32.4 30.0001H26.6316V21.2401C26.6316 19.1509 26.592 16.4641 23.6328 16.4641C20.6292 16.4641 20.1672 18.7393 20.1672 21.0889V30.0001H14.4V11.9869H19.9368V14.4481H20.0148C20.7852 13.0321 22.668 11.5393 25.476 11.5393C31.32 11.5393 32.4 15.2701 32.4 20.1205C32.4 20.1205 32.4 30.0001 32.4 30.0001Z" fill="white"/>
</svg>
