<svg width="36" height="36" viewBox="0 0 36 36" fill="none" xmlns="http://www.w3.org/2000/svg">
<rect width="36" height="36" fill="white"/>
<path d="M7.45 28.48C7.83 27.66 8.87 25.38 10.57 21.64C12.27 17.9 14.08 13.86 16 9.52C16.2 9.06 16.3 8.65 16.3 8.29C16.3 8.03 16.23 7.84 16.09 7.72C15.95 7.58 15.68 7.51 15.28 7.51C14.48 7.51 13.8 7.79 13.24 8.35C12.68 8.89 12.26 9.58 11.98 10.42C11.7 11.26 11.56 12.11 11.56 12.97C11.56 13.23 11.58 13.54 11.62 13.9C11.1 13.9 10.7 13.64 10.42 13.12C10.16 12.6 10.03 12.04 10.03 11.44C10.03 10.6 10.33 9.79 10.93 9.01C11.53 8.23 12.28 7.6 13.18 7.12C14.1 6.64 15 6.4 15.88 6.4C16.58 6.4 17.14 6.59 17.56 6.97C18 7.35 18.33 8.03 18.55 9.01C18.79 9.99 18.91 11.36 18.91 13.12C18.91 14.74 18.79 17.17 18.55 20.41C18.43 21.95 18.34 23.46 18.28 24.94C18.96 22.32 20.22 19.33 22.06 15.97C23.92 12.61 25.51 9.96 26.83 8.02C27.15 7.54 27.4 7.22 27.58 7.06C27.78 6.88 28.03 6.79 28.33 6.79C28.61 6.79 28.93 6.86 29.29 7C28.79 8.2 28.34 9.6 27.94 11.2C27.26 13.84 26.63 16.88 26.05 20.32C25.49 23.74 25.21 26.35 25.21 28.15C25.21 28.63 25.23 28.99 25.27 29.23C25.31 29.47 25.38 29.73 25.48 30.01L25.66 30.61C24.98 30.61 24.46 30.5 24.1 30.28C23.76 30.06 23.52 29.72 23.38 29.26C23.26 28.8 23.2 28.13 23.2 27.25C23.2 25.11 23.45 22.83 23.95 20.41C24.45 17.99 25.2 14.88 26.2 11.08C25.32 12.22 24.34 13.86 23.26 16C22.18 18.12 21.17 20.29 20.23 22.51C19.31 24.73 18.62 26.53 18.16 27.91C17.94 27.99 17.79 28.03 17.71 28.03C17.21 28.03 16.86 27.74 16.66 27.16C16.48 26.56 16.39 25.63 16.39 24.37C16.39 23.25 16.47 21.09 16.63 17.89C16.79 14.73 16.87 12.64 16.87 11.62C16.87 11.06 16.85 10.5 16.81 9.94C15.37 13.28 14.13 16.24 13.09 18.82C11.71 22.14 10.68 24.55 10 26.05C9.32 27.55 8.7 28.68 8.14 29.44C7.58 30.22 7.03 30.61 6.49 30.61L7.45 28.48Z" fill="black"/>
</svg>
