<svg width="40" height="40" viewBox="0 0 40 40" fill="none" xmlns="http://www.w3.org/2000/svg">
<g clip-path="url(#clip0)">
<path d="M28.7702 24.9826C26.004 27.7488 20.2777 26.5074 20.2777 26.5074C20.2777 26.5074 19.0363 20.7812 21.8026 18.015C24.5688 15.2487 30.2951 16.4901 30.2951 16.4901C30.2951 16.4901 31.5364 22.2164 28.7702 24.9826Z" fill="#FFA7C4"/>
<path d="M11.2298 24.9826C13.9961 27.7488 19.7223 26.5074 19.7223 26.5074C19.7223 26.5074 20.9637 20.7812 18.1975 18.015C15.4312 15.2487 9.70496 16.4901 9.70496 16.4901C9.70496 16.4901 8.46363 22.2164 11.2298 24.9826Z" fill="#FFA7C4"/>
<path d="M30.5727 26.0041H20.7812V13.8152C22.1515 12.8956 26.6277 9.82148 27.6844 8.21477C28.2033 7.42516 28.7882 6.31469 28.7029 4.72352C28.6356 3.46594 28.1032 2.28516 27.2038 1.39859C26.2887 0.496719 25.0929 0 23.8366 0C22.1649 0 20.7802 1.14617 20.012 1.95383C19.2615 1.14172 17.8979 0 16.163 0C14.9069 0 13.7112 0.496719 12.7961 1.39867C11.8967 2.28516 11.3643 3.46594 11.2969 4.72359C11.2108 6.33648 11.8374 7.48891 12.3162 8.21563C13.3628 9.80352 17.8276 12.8713 19.2187 13.8051V26.004H9.42725C8.99576 26.004 8.646 26.3538 8.646 26.7852V30.728C8.646 31.1595 8.99576 31.5093 9.42725 31.5093H10.2251L12.4105 39.4266C12.504 39.7654 12.8122 40 13.1637 40H26.8364C27.1878 40 27.496 39.7654 27.5895 39.4266L29.775 31.5093H30.5728C31.0043 31.5093 31.354 31.1595 31.354 30.728V26.7852C31.354 26.3538 31.0042 26.0041 30.5727 26.0041ZM13.621 7.35586C13.0376 6.47047 12.8092 5.70813 12.8573 4.80695C12.953 3.01797 14.436 1.5625 16.163 1.5625C17.9546 1.5625 19.3367 3.59133 19.3494 3.61023C19.4918 3.82469 19.7311 3.95461 19.9886 3.95867C20.2445 3.96391 20.4893 3.83898 20.6383 3.62906C20.6529 3.60844 22.1252 1.5625 23.8366 1.5625C25.5638 1.5625 27.0469 3.01797 27.1426 4.80703C27.1908 5.70609 26.9623 6.46859 26.3788 7.35641C25.5954 8.54773 21.8483 11.2113 20.0075 12.4525C18.1604 11.2076 14.3995 8.53711 13.621 7.35586ZM10.2085 27.5666H29.7915V29.9469H10.2085V27.5666ZM26.2415 38.4375H13.7584L11.846 31.5093H28.154L26.2415 38.4375Z" fill="#FF6498"/>
</g>
<defs>
<clipPath id="clip0">
<rect width="40" height="40" fill="white"/>
</clipPath>
</defs>
</svg>
