<svg width="40" height="40" viewBox="0 0 40 40" fill="none" xmlns="http://www.w3.org/2000/svg">
<path d="M37.3224 19.9938L34.4004 15.1288C34.2842 14.932 34.108 14.8347 33.9806 14.7907L23.2557 11.1693C23.2271 11.1596 23.1982 11.1518 23.1693 11.1455L22.4661 11.9249L23.1693 12.7893L31.2886 15.531L19.9999 19.3429L8.71112 15.531L16.8305 12.7893L17.6118 11.9089L16.8305 11.1484C16.7947 11.1551 16.7588 11.1643 16.7232 11.1764L6.01926 14.7907C5.84324 14.8502 5.7191 14.9392 5.60137 15.1255C5.60074 15.1266 2.6774 19.9938 2.6774 19.9938C2.51849 20.2584 2.527 20.5988 2.7188 20.8609C2.81154 20.9877 2.94466 21.0791 3.09153 21.1345L5.48785 22.0401V34.5818C5.48785 34.917 5.7016 35.2148 6.01918 35.3221L19.7499 39.9586L19.76 39.9619C19.7608 39.9621 19.7616 39.9624 19.7625 39.9627C19.9178 40.0125 20.0848 40.0121 20.24 39.9617L20.2498 39.9585L33.9806 35.322C34.2981 35.2147 34.5119 34.9169 34.5119 34.5817V22.0402L36.9082 21.1346C37.0551 21.0791 37.1882 20.9877 37.2809 20.861C37.4729 20.5989 37.4814 20.2584 37.3224 19.9938V19.9938ZM4.49872 19.996L6.61504 16.4723L18.624 20.5274L15.3937 24.113L4.49872 19.996ZM19.2187 38.13L7.05042 34.0212V22.6306L15.3408 25.7633C15.4307 25.7974 15.5242 25.8138 15.6168 25.8138C15.834 25.8138 16.0463 25.7232 16.1974 25.5555L19.2187 22.2019V38.13H19.2187ZM32.9495 34.0212L20.7812 38.1301V22.2018L23.8025 25.5554C23.9536 25.723 24.1659 25.8137 24.3832 25.8137C24.4757 25.8137 24.5692 25.7972 24.6592 25.7633L32.9495 22.6305V34.0212H32.9495ZM24.6061 24.113L21.3758 20.5274L33.3847 16.4723L35.501 19.996L24.6061 24.113Z" fill="#FF6498"/>
<path d="M27.1515 9.50227L20 0L12.8484 9.50227H16.8306V15.517H23.1693V9.50227H27.1515Z" fill="#FFA7C4"/>
</svg>
