<svg width="40" height="40" viewBox="0 0 40 40" fill="none" xmlns="http://www.w3.org/2000/svg">
<g clip-path="url(#clip0)">
<path d="M17.5703 35.7812C13.936 35.7812 10.9792 32.8812 10.9792 29.3166C10.9792 26.965 12.2844 24.7956 14.3853 23.6548L16.1827 22.6791V5.60648C16.1827 4.84133 16.8053 4.21875 17.5704 4.21875C18.3356 4.21875 18.9582 4.84133 18.9582 5.60648V22.6791L20.7555 23.6548C22.8564 24.7956 24.1616 26.965 24.1616 29.3166C24.1615 32.8812 21.2047 35.7812 17.5703 35.7812Z" fill="#FFAAC7"/>
<path d="M31.2853 19.6778C34.1857 16.7773 33.0142 11.1313 32.963 10.8924C32.8985 10.5918 32.6637 10.357 32.3631 10.2925C32.1242 10.2412 26.4781 9.06984 23.5777 11.9702C23.4343 12.1136 23.301 12.2637 23.1769 12.4194V5.60648C23.1769 2.515 20.6619 0 17.5704 0C14.4789 0 11.9639 2.515 11.9639 5.60648V20.1807C8.74237 22.1141 6.7605 25.5726 6.7605 29.3166C6.76058 35.2074 11.61 40 17.5704 40C23.5309 40 28.3803 35.2074 28.3803 29.3166C28.3803 26.3784 27.1597 23.6161 25.0774 21.6287C25.1825 21.6309 25.2896 21.6322 25.3983 21.6322C27.2932 21.6322 29.6996 21.2634 31.2853 19.6778ZM24.6826 13.0751C26.5439 11.2138 30.182 11.5377 31.5232 11.7334C31.7207 13.0742 32.0476 16.7057 30.1804 18.5729C28.6759 20.0774 26.0103 20.1541 24.3355 20.0249L26.7118 17.6486L28.847 17.6484C29.2784 17.6484 29.6282 17.2986 29.6282 16.8671C29.6282 16.4357 29.2784 16.0859 28.8468 16.0859H28.2745L29.3719 14.9885C29.677 14.6834 29.677 14.1888 29.3719 13.8836C29.0667 13.5786 28.5722 13.5786 28.267 13.8836L27.1696 14.981V14.4086C27.1696 13.9771 26.8198 13.6273 26.3884 13.6273C26.3883 13.6273 26.3883 13.6273 26.3883 13.6273C25.9569 13.6273 25.6071 13.977 25.6071 14.4084L25.6069 16.5436L23.2285 18.922C23.0975 17.249 23.1726 14.5851 24.6826 13.0751ZM26.8178 29.3166C26.8178 34.3459 22.6695 38.4375 17.5704 38.4375C12.4714 38.4375 8.32308 34.3459 8.32308 29.3166C8.32308 25.9902 10.1604 22.9263 13.118 21.3205C13.3697 21.1838 13.5265 20.9203 13.5265 20.6339V5.60648C13.5265 3.37664 15.3406 1.5625 17.5704 1.5625C19.8003 1.5625 21.6144 3.37664 21.6144 5.60648V20.634C21.6144 20.9204 21.7712 21.1839 22.0229 21.3205C24.9805 22.9263 26.8178 25.9903 26.8178 29.3166Z" fill="#FF6498"/>
</g>
<defs>
<clipPath id="clip0">
<rect width="40" height="40" fill="white"/>
</clipPath>
</defs>
</svg>
