<svg width="40" height="40" viewBox="0 0 40 40" fill="none" xmlns="http://www.w3.org/2000/svg">
<g clip-path="url(#clip0)">
<circle cx="10.5469" cy="19.1406" r="1.79688" fill="#FFA7C4"/>
<circle cx="29.4531" cy="19.1406" r="1.79688" fill="#FFA7C4"/>
<circle cx="23.125" cy="19.1406" r="1.79688" fill="#FFA7C4"/>
<circle cx="16.875" cy="19.1406" r="1.79688" fill="#FFA7C4"/>
<path d="M37.2317 3.5083H2.76828C1.2418 3.5083 0 4.75908 0 6.29643V33.7031C0 35.2404 1.2418 36.4912 2.76828 36.4912H37.2317C38.7581 36.4912 40 35.2404 40 33.7031V6.29643C40 4.75908 38.7581 3.5083 37.2317 3.5083V3.5083ZM1.5625 6.29643C1.5625 5.62064 2.10344 5.0708 2.76828 5.0708H37.2317C37.8966 5.0708 38.4375 5.62057 38.4375 6.29643V9.40314H1.5625V6.29643ZM38.4375 33.703C38.4375 34.3788 37.8966 34.9286 37.2317 34.9286H2.76828C2.10344 34.9286 1.5625 34.3789 1.5625 33.703V10.9656H38.4375V33.703Z" fill="#FF6498"/>
<path d="M6.47611 6.45605H5.39893C4.96744 6.45605 4.61768 6.8059 4.61768 7.2373C4.61768 7.66871 4.96744 8.01855 5.39893 8.01855H6.47603C6.90752 8.01855 7.25728 7.66871 7.25728 7.2373C7.25736 6.80582 6.90752 6.45605 6.47611 6.45605V6.45605Z" fill="#FF6498"/>
<path d="M10.934 6.45605H9.85693C9.42545 6.45605 9.07568 6.8059 9.07568 7.2373C9.07568 7.66871 9.42545 8.01855 9.85693 8.01855H10.934C11.3655 8.01855 11.7153 7.66871 11.7153 7.2373C11.7153 6.80582 11.3655 6.45605 10.934 6.45605Z" fill="#FF6498"/>
<path d="M15.3924 6.45605H14.3152C13.8837 6.45605 13.5339 6.8059 13.5339 7.2373C13.5339 7.66871 13.8837 8.01855 14.3152 8.01855H15.3924C15.8239 8.01855 16.1736 7.66871 16.1736 7.2373C16.1736 6.80582 15.8239 6.45605 15.3924 6.45605Z" fill="#FF6498"/>
<path d="M34.601 6.45605H30.7778C30.3464 6.45605 29.9966 6.8059 29.9966 7.2373C29.9966 7.66871 30.3464 8.01855 30.7778 8.01855H34.601C35.0324 8.01855 35.3823 7.66871 35.3823 7.2373C35.3823 6.80582 35.0324 6.45605 34.601 6.45605Z" fill="#FF6498"/>
<path d="M29.4461 30.6338H10.5539C8.78371 30.6338 7.34863 29.1987 7.34863 27.4285C7.34863 25.6582 8.78371 24.2231 10.5539 24.2231H29.4461C31.2164 24.2231 32.6514 25.6582 32.6514 27.4285C32.6514 29.1987 31.2164 30.6338 29.4461 30.6338Z" fill="#FFA7C4"/>
</g>
<defs>
<clipPath id="clip0">
<rect width="40" height="40" fill="white"/>
</clipPath>
</defs>
</svg>
