<svg width="40" height="40" viewBox="0 0 40 40" fill="none" xmlns="http://www.w3.org/2000/svg">
<path d="M17.1982 3.58813V12.6262H25.4022V21.9603H31.5137L36.2989 24.8345L36.5678 21.9603H39.9999V3.58813H17.1982Z" fill="#FFA7C4"/>
<path d="M25.4023 11.845H0.78125C0.349766 11.845 0 12.1948 0 12.6262V32.4643C0 32.8958 0.349766 33.2456 0.78125 33.2456H4.60383L4.77961 35.6863C4.79992 35.9679 4.97055 36.2166 5.22594 36.3369C5.33187 36.3868 5.44555 36.4114 5.55875 36.4114C5.71844 36.4114 5.87727 36.3624 6.0118 36.2666L10.2565 33.2455H25.4023C25.8337 33.2455 26.1835 32.8957 26.1835 32.4643V12.6262C26.1835 12.1948 25.8337 11.845 25.4023 11.845ZM24.621 31.6831H10.0069C9.84445 31.6831 9.68617 31.7336 9.55383 31.8278L6.2382 34.1876L6.11 32.4082C6.08055 31.9996 5.74047 31.6831 5.33078 31.6831H1.5625V13.4075H24.621V31.6831Z" fill="#FF6498"/>
</svg>
