<svg width="40" height="40" viewBox="0 0 40 40" fill="none" xmlns="http://www.w3.org/2000/svg">
<g clip-path="url(#clip0)">
<path d="M24.5667 24.2981C24.7104 24.9816 24.6871 25.7511 24.591 26.4287C24.4956 27.1007 24.1797 27.7801 23.4871 27.9907C23.4871 27.9907 22.0791 28.4115 20.6586 26.8865C20.5626 26.9141 20.4613 26.9289 20.3569 26.9289H19.6281C19.5279 26.9289 19.4307 26.9153 19.3382 26.8898C17.9188 28.4109 16.5128 27.9907 16.5128 27.9907C15.8202 27.7801 15.5044 27.1007 15.4089 26.4287C15.3128 25.7511 15.2895 24.9816 15.4331 24.2981H14.4692L16.6665 39.2191H23.3331L25.5304 24.2981H24.5667Z" fill="#FFA7C4"/>
<path d="M21.3726 18.5448C21.6782 18.2401 21.679 17.7455 21.3743 17.4398C21.0696 17.1344 20.5751 17.1336 20.2694 17.4382C20.1209 17.5863 19.879 17.5863 19.7306 17.4382C19.425 17.1336 18.9304 17.1343 18.6257 17.4398C18.3211 17.7454 18.3218 18.2401 18.6274 18.5448C19.0058 18.922 19.503 19.1106 20 19.1106C20.497 19.1106 20.9942 18.922 21.3726 18.5448Z" fill="#FF6498"/>
<path d="M23.2544 15.4941C23.6858 15.4941 24.0356 15.1443 24.0356 14.7129V13.5344C24.0356 13.103 23.6858 12.7532 23.2544 12.7532C22.823 12.7532 22.4731 13.103 22.4731 13.5344V14.7129C22.4731 15.1443 22.8229 15.4941 23.2544 15.4941Z" fill="#FF6498"/>
<path d="M16.7458 12.7532C16.3144 12.7532 15.9646 13.103 15.9646 13.5344V14.7129C15.9646 15.1443 16.3144 15.4941 16.7458 15.4941C17.1773 15.4941 17.5271 15.1443 17.5271 14.7129V13.5344C17.5271 13.1029 17.1773 12.7532 16.7458 12.7532Z" fill="#FF6498"/>
<path d="M28.5847 23.5166H25.1467C24.8657 22.8344 24.3573 22.3445 23.7109 22.1479C23.6799 22.1385 23.3657 22.0491 22.8884 22.0678C26.5432 21.0105 28.7153 18.3405 29.0885 14.4342C30.2167 14.1952 31.066 13.1924 31.066 11.9949C31.066 10.8867 30.3386 9.94517 29.3357 9.6215C29.76 7.98689 29.7974 6.10346 29.4458 4.00706C29.2839 3.04159 29.0673 2.22534 28.9141 1.71073C28.6022 0.66269 28.5303 0.600737 28.3868 0.477222C28.2224 0.335659 28.0062 0.269175 27.791 0.292847C27.5754 0.316831 27.3795 0.429175 27.2501 0.603315C26.9845 0.960736 25.485 0.639721 24.4929 0.427378C23.4065 0.1948 22.2827 -0.0451993 21.2388 0.00730058C20.1121 0.0643317 19.2593 0.468706 18.6954 1.21253C15.563 0.621127 13.2558 1.09074 11.8322 2.61144C9.88115 4.69581 10.2619 8.10205 10.5683 9.65478C9.61545 10.006 8.93412 10.9225 8.93412 11.995C8.93412 13.1649 9.74474 14.1491 10.8343 14.4166C11.2022 18.3305 13.3732 21.0059 17.0297 22.0661C16.5975 22.0598 16.3161 22.1399 16.2855 22.1491C15.6422 22.3448 15.1342 22.8346 14.8534 23.5166H11.4154C9.66974 23.5166 8.24951 24.937 8.24951 26.6828V39.2188C8.24951 39.6502 8.59935 40 9.03076 40H30.9695C31.4009 40 31.7507 39.6502 31.7507 39.2188V26.6828C31.7507 24.9369 30.3304 23.5166 28.5847 23.5166ZM12.9754 3.67659C14.077 2.50253 16.0714 2.22441 18.9028 2.84995C19.2534 2.92737 19.6118 2.75573 19.7713 2.43401L19.7813 2.41394C20.3714 1.24339 21.9709 1.48566 24.1659 1.95527C25.3784 2.2148 26.5449 2.46433 27.4399 2.23441C27.8681 3.69354 28.5495 6.74932 27.7588 9.46228L26.8468 9.40002C25.5602 8.80033 25.1264 7.71432 24.5368 6.01885C24.4503 5.7701 24.2444 5.58166 23.989 5.51768C23.7335 5.45362 23.4631 5.52237 23.2695 5.70096C21.1714 7.63439 18.5817 8.85767 15.5725 9.33666C14.0526 9.57877 12.8023 9.55884 12.1372 9.51884C11.8843 8.32018 11.4462 5.30651 12.9754 3.67659ZM18.2907 20.7669C14.5602 20.0159 12.5061 17.5637 12.3504 13.6758C12.3336 13.2569 11.989 12.9258 11.5697 12.9258H11.4299C10.9153 12.9258 10.4966 12.5082 10.4966 11.9949C10.4966 11.4817 10.9153 11.0641 11.4299 11.0641H11.5622C11.6071 11.0641 11.6511 11.0602 11.6939 11.053C11.9628 11.0775 12.4047 11.1069 12.9789 11.1069C13.7165 11.1069 14.6728 11.0584 15.7606 10.8888C17.8306 10.566 20.7559 9.72923 23.4489 7.6008C23.9745 8.9358 24.7021 10.1852 26.3486 10.8884C26.4292 10.9228 26.5149 10.9434 26.6023 10.9494L28.2556 11.0622C28.2826 11.0641 28.3094 11.0645 28.336 11.0635C28.3447 11.0638 28.3534 11.064 28.362 11.064H28.5701C29.0847 11.064 29.5034 11.4816 29.5034 11.9949C29.5034 12.5081 29.0847 12.9257 28.5701 12.9257H28.3545C27.9353 12.9257 27.5907 13.2567 27.5739 13.6757C27.4182 17.5637 25.364 20.0157 21.6335 20.7669C21.2542 20.8433 20.9878 21.1858 21.0074 21.5722L21.0618 22.6514C20.8189 22.8039 20.5707 22.994 20.3225 23.2299H19.6774C19.4041 22.9701 19.1308 22.766 18.8645 22.6063L18.9166 21.5721C18.9363 21.1858 18.67 20.8434 18.2907 20.7669ZM16.2403 24.2823C16.2945 24.0841 16.4316 23.7377 16.7366 23.645C16.7464 23.6422 17.7286 23.3904 18.8005 24.5665C18.9914 24.776 19.2808 24.8658 19.5567 24.8008C19.58 24.7953 19.6041 24.7926 19.6283 24.7926H20.357C20.3824 24.7926 20.4075 24.7956 20.4314 24.8015C20.71 24.8707 21.0042 24.7814 21.1974 24.569C22.2204 23.4449 23.1732 23.6251 23.2716 23.6476C23.5719 23.7465 23.7063 24.0867 23.7599 24.2823C23.9071 24.8194 23.9276 25.5427 23.8176 26.3186C23.7761 26.6108 23.6497 27.1171 23.2724 27.239C23.1803 27.2602 22.2437 27.4418 21.2303 26.3537C21.0803 26.1926 20.8723 26.1049 20.6586 26.1049C20.5866 26.1049 20.5139 26.1149 20.4426 26.1354C20.415 26.1433 20.3862 26.1473 20.3569 26.1473H19.6282C19.6003 26.1473 19.5725 26.1436 19.5458 26.1362C19.2653 26.0589 18.9654 26.1439 18.7671 26.3564C17.7577 27.438 16.8256 27.2611 16.7284 27.2392C16.3498 27.1146 16.2239 26.6101 16.1825 26.3187C16.0726 25.5427 16.0931 24.8194 16.2403 24.2823ZM30.1882 38.4375H9.81193V26.6828C9.81193 25.7986 10.5312 25.0791 11.4154 25.0791H14.5557C14.5335 25.6233 14.5786 26.1363 14.6356 26.5383C14.7957 27.666 15.3972 28.4676 16.2892 28.739C16.3171 28.7473 16.5774 28.8215 16.9811 28.8215C17.6199 28.8215 18.6175 28.6357 19.6209 27.7099H20.3569C20.3643 27.7099 20.3716 27.7098 20.3789 27.7097C22.0167 29.2211 23.6389 28.7605 23.7145 28.7379C24.6028 28.4676 25.2042 27.6659 25.3645 26.5381C25.4214 26.1362 25.4665 25.6233 25.4443 25.0791H28.5846C29.4688 25.0791 30.1881 25.7986 30.1881 26.6828L30.1882 38.4375Z" fill="#FF6498"/>
</g>
<defs>
<clipPath id="clip0">
<rect width="40" height="40" fill="white"/>
</clipPath>
</defs>
</svg>
