<svg width="405" height="1547" viewBox="0 0 405 1547" fill="none" xmlns="http://www.w3.org/2000/svg">
<path d="M182.027 1C194.527 58 -9.07321 122.1 134.527 222.5C314.027 348 456.027 337.5 386.027 432.5C316.027 527.5 -18.4732 552.5 41.5268 492.5C101.527 432.5 274.027 511.5 227.027 569C180.027 626.5 39.0268 570.5 78.5268 645C118.027 719.5 324.027 686.5 303.527 752.5C283.027 818.5 64.0268 752.5 78.5268 818.5C93.0268 884.5 285.027 866.5 268.527 959C252.027 1051.5 159.527 1002 182.027 1082.5C200.36 1137.33 252.127 1236.5 312.527 1194.5C388.027 1142 37.5268 1049 3.0268 1092C-31.4732 1135 387.027 1289 303.527 1376C220.027 1463 95.0268 1476.5 138.527 1546" stroke="#707070" stroke-width="0.7"/>
</svg>
