<svg width="24" height="25" viewBox="0 0 24 25" fill="none" xmlns="http://www.w3.org/2000/svg">
<path d="M1.44999 22.4799C1.82999 21.6599 2.86999 19.3799 4.56999 15.6399C6.26999 11.8999 8.07999 7.8599 9.99999 3.5199C10.2 3.0599 10.3 2.6499 10.3 2.2899C10.3 2.0299 10.23 1.8399 10.09 1.7199C9.94999 1.5799 9.67999 1.5099 9.27999 1.5099C8.47999 1.5099 7.79999 1.7899 7.23999 2.3499C6.67999 2.8899 6.25999 3.5799 5.97999 4.4199C5.69999 5.2599 5.55999 6.1099 5.55999 6.9699C5.55999 7.2299 5.57999 7.5399 5.61999 7.8999C5.09999 7.8999 4.69999 7.6399 4.41999 7.1199C4.15999 6.5999 4.02999 6.0399 4.02999 5.4399C4.02999 4.5999 4.32999 3.7899 4.92999 3.0099C5.52999 2.2299 6.27999 1.5999 7.17999 1.1199C8.09999 0.639902 8.99999 0.399902 9.87999 0.399902C10.58 0.399902 11.14 0.589902 11.56 0.969902C12 1.3499 12.33 2.0299 12.55 3.0099C12.79 3.9899 12.91 5.3599 12.91 7.1199C12.91 8.7399 12.79 11.1699 12.55 14.4099C12.43 15.9499 12.34 17.4599 12.28 18.9399C12.96 16.3199 14.22 13.3299 16.06 9.9699C17.92 6.6099 19.51 3.9599 20.83 2.0199C21.15 1.5399 21.4 1.2199 21.58 1.0599C21.78 0.879903 22.03 0.789902 22.33 0.789902C22.61 0.789902 22.93 0.859902 23.29 0.999902C22.79 2.1999 22.34 3.5999 21.94 5.1999C21.26 7.8399 20.63 10.8799 20.05 14.3199C19.49 17.7399 19.21 20.3499 19.21 22.1499C19.21 22.6299 19.23 22.9899 19.27 23.2299C19.31 23.4699 19.38 23.7299 19.48 24.0099L19.66 24.6099C18.98 24.6099 18.46 24.4999 18.1 24.2799C17.76 24.0599 17.52 23.7199 17.38 23.2599C17.26 22.7999 17.2 22.1299 17.2 21.2499C17.2 19.1099 17.45 16.8299 17.95 14.4099C18.45 11.9899 19.2 8.8799 20.2 5.0799C19.32 6.2199 18.34 7.8599 17.26 9.9999C16.18 12.1199 15.17 14.2899 14.23 16.5099C13.31 18.7299 12.62 20.5299 12.16 21.9099C11.94 21.9899 11.79 22.0299 11.71 22.0299C11.21 22.0299 10.86 21.7399 10.66 21.1599C10.48 20.5599 10.39 19.6299 10.39 18.3699C10.39 17.2499 10.47 15.0899 10.63 11.8899C10.79 8.7299 10.87 6.6399 10.87 5.6199C10.87 5.0599 10.85 4.4999 10.81 3.9399C9.36999 7.2799 8.12999 10.2399 7.08999 12.8199C5.70999 16.1399 4.67999 18.5499 3.99999 20.0499C3.31999 21.5499 2.69999 22.6799 2.13999 23.4399C1.57999 24.2199 1.02999 24.6099 0.48999 24.6099L1.44999 22.4799Z" fill="white"/>
</svg>
