<svg width="24" height="25" viewBox="0 0 24 25" fill="none" xmlns="http://www.w3.org/2000/svg">
<path d="M1.45 22.48C1.83 21.66 2.87 19.38 4.57 15.64C6.27 11.9 8.08 7.86 10 3.52C10.2 3.06 10.3 2.65 10.3 2.29C10.3 2.03 10.23 1.84 10.09 1.72C9.95 1.58 9.68 1.51 9.28 1.51C8.48 1.51 7.8 1.79 7.24 2.35C6.68 2.89 6.26 3.58 5.98 4.42C5.7 5.26 5.56 6.11 5.56 6.97C5.56 7.23 5.58 7.54 5.62 7.9C5.1 7.9 4.7 7.64 4.42 7.12C4.16 6.6 4.03 6.04 4.03 5.44C4.03 4.6 4.33 3.79 4.93 3.01C5.53 2.23 6.28 1.6 7.18 1.12C8.1 0.639999 9 0.399999 9.88 0.399999C10.58 0.399999 11.14 0.589999 11.56 0.969999C12 1.35 12.33 2.03 12.55 3.01C12.79 3.99 12.91 5.36 12.91 7.12C12.91 8.74 12.79 11.17 12.55 14.41C12.43 15.95 12.34 17.46 12.28 18.94C12.96 16.32 14.22 13.33 16.06 9.97C17.92 6.61 19.51 3.96 20.83 2.02C21.15 1.54 21.4 1.22 21.58 1.06C21.78 0.88 22.03 0.789999 22.33 0.789999C22.61 0.789999 22.93 0.859999 23.29 0.999999C22.79 2.2 22.34 3.6 21.94 5.2C21.26 7.84 20.63 10.88 20.05 14.32C19.49 17.74 19.21 20.35 19.21 22.15C19.21 22.63 19.23 22.99 19.27 23.23C19.31 23.47 19.38 23.73 19.48 24.01L19.66 24.61C18.98 24.61 18.46 24.5 18.1 24.28C17.76 24.06 17.52 23.72 17.38 23.26C17.26 22.8 17.2 22.13 17.2 21.25C17.2 19.11 17.45 16.83 17.95 14.41C18.45 11.99 19.2 8.88 20.2 5.08C19.32 6.22 18.34 7.86 17.26 10C16.18 12.12 15.17 14.29 14.23 16.51C13.31 18.73 12.62 20.53 12.16 21.91C11.94 21.99 11.79 22.03 11.71 22.03C11.21 22.03 10.86 21.74 10.66 21.16C10.48 20.56 10.39 19.63 10.39 18.37C10.39 17.25 10.47 15.09 10.63 11.89C10.79 8.73 10.87 6.64 10.87 5.62C10.87 5.06 10.85 4.5 10.81 3.94C9.37 7.28 8.13 10.24 7.09 12.82C5.71 16.14 4.68 18.55 4 20.05C3.32 21.55 2.7 22.68 2.14 23.44C1.58 24.22 1.03 24.61 0.49 24.61L1.45 22.48Z" fill="black"/>
</svg>
