<svg width="30" height="30" viewBox="0 0 30 30" fill="none" xmlns="http://www.w3.org/2000/svg">
<path d="M15 0C6.72913 0 0 6.72848 0 15C0 23.2715 6.72913 30 15 30C23.2709 30 30 23.2715 30 15C30 6.72848 23.2709 0 15 0ZM10.4348 21.5217H7.82609V11.7391H10.4348V21.5217ZM9.13044 9.78261C8.40978 9.78261 7.82609 9.19891 7.82609 8.47826C7.82609 7.75761 8.40978 7.17391 9.13044 7.17391C9.85109 7.17391 10.4348 7.75761 10.4348 8.47826C10.4348 9.19891 9.85109 9.78261 9.13044 9.78261ZM22.8261 21.5217H20.2174V18.2609V16.6304C20.2174 15.375 19.1902 14.3478 17.9348 14.3478C16.6793 14.3478 15.6522 15.375 15.6522 16.6304V21.5217H13.0435V11.7391H15.6522V12.9235C16.4139 12.1917 17.447 11.7391 18.587 11.7391C20.9283 11.7391 22.8261 13.637 22.8261 15.9783V21.5217Z" fill="black"/>
</svg>
